<svg width="200" height="126" viewBox="0 0 200 126" fill="none" xmlns="http://www.w3.org/2000/svg">
<g clip-path="url(#clip0_1717_9372)">
<path fill-rule="evenodd" clip-rule="evenodd" d="M6.99975 6.9918C6.99975 5.44661 5.7468 4.19508 4.19985 4.19508C1.88013 4.19508 0 2.31708 0 0H1.39995C1.39995 1.54519 2.65291 2.79672 4.19985 2.79672C6.51957 2.79672 8.3997 4.67472 8.3997 6.9918C8.3997 8.53699 9.65266 9.78852 11.1996 9.78852C13.5193 9.78852 15.3995 11.6665 15.3995 13.9836C15.3995 15.5288 16.6524 16.7803 18.1994 16.7803V18.1787C15.8796 18.1787 13.9995 16.3007 13.9995 13.9836C13.9995 12.4384 12.7465 11.1869 11.1996 11.1869C8.87989 11.1869 6.99975 9.30888 6.99975 6.9918ZM24.8239 5.6284L30.7639 11.5616L29.7741 12.5503L23.8342 6.61704L24.8239 5.6284V5.6284Z" fill="#6C5CE7"/>
<path fill-rule="evenodd" clip-rule="evenodd" d="M43.3572 6.9918C43.3572 5.44661 42.1042 4.19508 40.5573 4.19508C38.2376 4.19508 36.3574 2.31708 36.3574 0H37.7574C37.7574 1.54519 39.0103 2.79672 40.5573 2.79672C42.877 2.79672 44.7571 4.67472 44.7571 6.9918C44.7571 8.53699 46.0101 9.78852 47.557 9.78852C49.8767 9.78852 51.7569 11.6665 51.7569 13.9836C51.7569 15.5288 53.0098 16.7803 54.5568 16.7803V18.1787C52.2371 18.1787 50.3569 16.3007 50.3569 13.9836C50.3569 12.4384 49.104 11.1869 47.557 11.1869C45.2373 11.1869 43.3572 9.30888 43.3572 6.9918ZM61.1813 5.6284L67.1213 11.5616L66.1316 12.5503L60.1916 6.61704L61.1813 5.6284V5.6284Z" fill="#6C5CE7"/>
<path fill-rule="evenodd" clip-rule="evenodd" d="M79.7144 6.9918C79.7144 5.44661 78.4614 4.19508 76.9145 4.19508C74.5947 4.19508 72.7146 2.31708 72.7146 0H74.1146C74.1146 1.54519 75.3675 2.79672 76.9145 2.79672C79.2342 2.79672 81.1143 4.67472 81.1143 6.9918C81.1143 8.53699 82.3673 9.78852 83.9142 9.78852C86.2339 9.78852 88.1141 11.6665 88.1141 13.9836C88.1141 15.5288 89.367 16.7803 90.914 16.7803V18.1787C88.5942 18.1787 86.7141 16.3007 86.7141 13.9836C86.7141 12.4384 85.4611 11.1869 83.9142 11.1869C81.5945 11.1869 79.7144 9.30888 79.7144 6.9918ZM97.5385 5.6284L103.479 11.5616L102.489 12.5503L96.5488 6.61704L97.5385 5.6284V5.6284Z" fill="#6C5CE7"/>
<path fill-rule="evenodd" clip-rule="evenodd" d="M116.072 6.9918C116.072 5.44661 114.819 4.19508 113.272 4.19508C110.952 4.19508 109.072 2.31708 109.072 0H110.472C110.472 1.54519 111.725 2.79672 113.272 2.79672C115.592 2.79672 117.472 4.67472 117.472 6.9918C117.472 8.53699 118.725 9.78852 120.272 9.78852C122.591 9.78852 124.471 11.6665 124.471 13.9836C124.471 15.5288 125.724 16.7803 127.271 16.7803V18.1787C124.952 18.1787 123.072 16.3007 123.072 13.9836C123.072 12.4384 121.819 11.1869 120.272 11.1869C117.952 11.1869 116.072 9.30888 116.072 6.9918ZM133.896 5.6284L139.836 11.5616L138.846 12.5503L132.906 6.61704L133.896 5.6284V5.6284Z" fill="#6C5CE7"/>
<path fill-rule="evenodd" clip-rule="evenodd" d="M152.429 6.9918C152.429 5.44661 151.176 4.19508 149.629 4.19508C147.31 4.19508 145.429 2.31708 145.429 0H146.829C146.829 1.54519 148.082 2.79672 149.629 2.79672C151.949 2.79672 153.829 4.67472 153.829 6.9918C153.829 8.53699 155.082 9.78852 156.629 9.78852C158.949 9.78852 160.829 11.6665 160.829 13.9836C160.829 15.5288 162.082 16.7803 163.629 16.7803V18.1787C161.309 18.1787 159.429 16.3007 159.429 13.9836C159.429 12.4384 158.176 11.1869 156.629 11.1869C154.309 11.1869 152.429 9.30888 152.429 6.9918ZM170.253 5.6284L176.193 11.5616L175.204 12.5503L169.264 6.61704L170.253 5.6284V5.6284Z" fill="#6C5CE7"/>
<path fill-rule="evenodd" clip-rule="evenodd" d="M188.787 6.9918C188.787 5.44661 187.534 4.19508 185.987 4.19508C183.667 4.19508 181.787 2.31708 181.787 0H183.187C183.187 1.54519 184.44 2.79672 185.987 2.79672C188.306 2.79672 190.187 4.67472 190.187 6.9918C190.187 8.53699 191.44 9.78852 192.986 9.78852C195.306 9.78852 197.186 11.6665 197.186 13.9836C197.186 15.5288 198.439 16.7803 199.986 16.7803V18.1787C197.667 18.1787 195.786 16.3007 195.786 13.9836C195.786 12.4384 194.533 11.1869 192.986 11.1869C190.667 11.1869 188.787 9.30888 188.787 6.9918ZM206.611 5.6284L212.551 11.5616L211.561 12.5503L205.621 6.61704L206.611 5.6284V5.6284Z" fill="#6C5CE7"/>
<path fill-rule="evenodd" clip-rule="evenodd" d="M6.99975 27.9671C6.99975 26.422 5.7468 25.1704 4.19985 25.1704C1.88013 25.1704 0 23.2924 0 20.9753H1.39995C1.39995 22.5205 2.65291 23.7721 4.19985 23.7721C6.51957 23.7721 8.3997 25.6501 8.3997 27.9671C8.3997 29.5123 9.65266 30.7639 11.1996 30.7639C13.5193 30.7639 15.3995 32.6419 15.3995 34.9589C15.3995 36.5041 16.6524 37.7557 18.1994 37.7557V39.154C15.8796 39.154 13.9995 37.276 13.9995 34.9589C13.9995 33.4137 12.7465 32.1622 11.1996 32.1622C8.87989 32.1622 6.99975 30.2842 6.99975 27.9671ZM24.8239 26.6037L30.7639 32.537L29.7741 33.5256L23.8342 27.5924L24.8239 26.6037V26.6037Z" fill="#6C5CE7"/>
<path fill-rule="evenodd" clip-rule="evenodd" d="M43.3572 27.9671C43.3572 26.422 42.1042 25.1704 40.5573 25.1704C38.2376 25.1704 36.3574 23.2924 36.3574 20.9753H37.7574C37.7574 22.5205 39.0103 23.7721 40.5573 23.7721C42.877 23.7721 44.7571 25.6501 44.7571 27.9671C44.7571 29.5123 46.0101 30.7639 47.557 30.7639C49.8767 30.7639 51.7569 32.6419 51.7569 34.9589C51.7569 36.5041 53.0098 37.7557 54.5568 37.7557V39.154C52.2371 39.154 50.3569 37.276 50.3569 34.9589C50.3569 33.4137 49.104 32.1622 47.557 32.1622C45.2373 32.1622 43.3572 30.2842 43.3572 27.9671ZM61.1813 26.6037L67.1213 32.537L66.1316 33.5256L60.1916 27.5924L61.1813 26.6037V26.6037Z" fill="#6C5CE7"/>
<path fill-rule="evenodd" clip-rule="evenodd" d="M79.7144 27.9671C79.7144 26.422 78.4614 25.1704 76.9145 25.1704C74.5947 25.1704 72.7146 23.2924 72.7146 20.9753H74.1146C74.1146 22.5205 75.3675 23.7721 76.9145 23.7721C79.2342 23.7721 81.1143 25.6501 81.1143 27.9671C81.1143 29.5123 82.3673 30.7639 83.9142 30.7639C86.2339 30.7639 88.1141 32.6419 88.1141 34.9589C88.1141 36.5041 89.367 37.7557 90.914 37.7557V39.154C88.5942 39.154 86.7141 37.276 86.7141 34.9589C86.7141 33.4137 85.4611 32.1622 83.9142 32.1622C81.5945 32.1622 79.7144 30.2842 79.7144 27.9671ZM97.5385 26.6037L103.479 32.537L102.489 33.5256L96.5488 27.5924L97.5385 26.6037V26.6037Z" fill="#6C5CE7"/>
<path fill-rule="evenodd" clip-rule="evenodd" d="M116.072 27.9671C116.072 26.422 114.819 25.1704 113.272 25.1704C110.952 25.1704 109.072 23.2924 109.072 20.9753H110.472C110.472 22.5205 111.725 23.7721 113.272 23.7721C115.592 23.7721 117.472 25.6501 117.472 27.9671C117.472 29.5123 118.725 30.7639 120.272 30.7639C122.591 30.7639 124.471 32.6419 124.471 34.9589C124.471 36.5041 125.724 37.7557 127.271 37.7557V39.154C124.952 39.154 123.072 37.276 123.072 34.9589C123.072 33.4137 121.819 32.1622 120.272 32.1622C117.952 32.1622 116.072 30.2842 116.072 27.9671ZM133.896 26.6037L139.836 32.537L138.846 33.5256L132.906 27.5924L133.896 26.6037V26.6037Z" fill="#6C5CE7"/>
<path fill-rule="evenodd" clip-rule="evenodd" d="M152.429 27.9671C152.429 26.422 151.176 25.1704 149.629 25.1704C147.31 25.1704 145.429 23.2924 145.429 20.9753H146.829C146.829 22.5205 148.082 23.7721 149.629 23.7721C151.949 23.7721 153.829 25.6501 153.829 27.9671C153.829 29.5123 155.082 30.7639 156.629 30.7639C158.949 30.7639 160.829 32.6419 160.829 34.9589C160.829 36.5041 162.082 37.7557 163.629 37.7557V39.154C161.309 39.154 159.429 37.276 159.429 34.9589C159.429 33.4137 158.176 32.1622 156.629 32.1622C154.309 32.1622 152.429 30.2842 152.429 27.9671ZM170.253 26.6037L176.193 32.537L175.204 33.5256L169.264 27.5924L170.253 26.6037V26.6037Z" fill="#6C5CE7"/>
<path fill-rule="evenodd" clip-rule="evenodd" d="M188.787 27.9671C188.787 26.422 187.534 25.1704 185.987 25.1704C183.667 25.1704 181.787 23.2924 181.787 20.9753H183.187C183.187 22.5205 184.44 23.7721 185.987 23.7721C188.306 23.7721 190.187 25.6501 190.187 27.9671C190.187 29.5123 191.44 30.7639 192.986 30.7639C195.306 30.7639 197.186 32.6419 197.186 34.9589C197.186 36.5041 198.439 37.7557 199.986 37.7557V39.154C197.667 39.154 195.786 37.276 195.786 34.9589C195.786 33.4137 194.533 32.1622 192.986 32.1622C190.667 32.1622 188.787 30.2842 188.787 27.9671ZM206.611 26.6037L212.551 32.537L211.561 33.5256L205.621 27.5924L206.611 26.6037V26.6037Z" fill="#6C5CE7"/>
<path fill-rule="evenodd" clip-rule="evenodd" d="M6.99975 48.9426C6.99975 47.3974 5.7468 46.1459 4.19985 46.1459C1.88013 46.1459 0 44.2679 0 41.9508H1.39995C1.39995 43.496 2.65291 44.7475 4.19985 44.7475C6.51957 44.7475 8.3997 46.6255 8.3997 48.9426C8.3997 50.4878 9.65266 51.7393 11.1996 51.7393C13.5193 51.7393 15.3995 53.6173 15.3995 55.9344C15.3995 57.4796 16.6524 58.7311 18.1994 58.7311V60.1295C15.8796 60.1295 13.9995 58.2515 13.9995 55.9344C13.9995 54.3892 12.7465 53.1377 11.1996 53.1377C8.87989 53.1377 6.99975 51.2597 6.99975 48.9426ZM24.8239 47.5792L30.7639 53.5124L29.7741 54.5011L23.8342 48.5678L24.8239 47.5792V47.5792Z" fill="#6C5CE7"/>
<path fill-rule="evenodd" clip-rule="evenodd" d="M43.3572 48.9426C43.3572 47.3974 42.1042 46.1459 40.5573 46.1459C38.2376 46.1459 36.3574 44.2679 36.3574 41.9508H37.7574C37.7574 43.496 39.0103 44.7475 40.5573 44.7475C42.877 44.7475 44.7571 46.6255 44.7571 48.9426C44.7571 50.4878 46.0101 51.7393 47.557 51.7393C49.8767 51.7393 51.7569 53.6173 51.7569 55.9344C51.7569 57.4796 53.0098 58.7311 54.5568 58.7311V60.1295C52.2371 60.1295 50.3569 58.2515 50.3569 55.9344C50.3569 54.3892 49.104 53.1377 47.557 53.1377C45.2373 53.1377 43.3572 51.2597 43.3572 48.9426ZM61.1813 47.5792L67.1213 53.5124L66.1316 54.5011L60.1916 48.5678L61.1813 47.5792V47.5792Z" fill="#6C5CE7"/>
<path fill-rule="evenodd" clip-rule="evenodd" d="M79.7144 48.9426C79.7144 47.3974 78.4614 46.1459 76.9145 46.1459C74.5947 46.1459 72.7146 44.2679 72.7146 41.9508H74.1146C74.1146 43.496 75.3675 44.7475 76.9145 44.7475C79.2342 44.7475 81.1143 46.6255 81.1143 48.9426C81.1143 50.4878 82.3673 51.7393 83.9142 51.7393C86.2339 51.7393 88.1141 53.6173 88.1141 55.9344C88.1141 57.4796 89.367 58.7311 90.914 58.7311V60.1295C88.5942 60.1295 86.7141 58.2515 86.7141 55.9344C86.7141 54.3892 85.4611 53.1377 83.9142 53.1377C81.5945 53.1377 79.7144 51.2597 79.7144 48.9426ZM97.5385 47.5792L103.479 53.5124L102.489 54.5011L96.5488 48.5678L97.5385 47.5792V47.5792Z" fill="#6C5CE7"/>
<path fill-rule="evenodd" clip-rule="evenodd" d="M116.072 48.9426C116.072 47.3974 114.819 46.1459 113.272 46.1459C110.952 46.1459 109.072 44.2679 109.072 41.9508H110.472C110.472 43.496 111.725 44.7475 113.272 44.7475C115.592 44.7475 117.472 46.6255 117.472 48.9426C117.472 50.4878 118.725 51.7393 120.272 51.7393C122.591 51.7393 124.471 53.6173 124.471 55.9344C124.471 57.4796 125.724 58.7311 127.271 58.7311V60.1295C124.952 60.1295 123.072 58.2515 123.072 55.9344C123.072 54.3892 121.819 53.1377 120.272 53.1377C117.952 53.1377 116.072 51.2597 116.072 48.9426ZM133.896 47.5792L139.836 53.5124L138.846 54.5011L132.906 48.5678L133.896 47.5792V47.5792Z" fill="#6C5CE7"/>
<path fill-rule="evenodd" clip-rule="evenodd" d="M152.429 48.9426C152.429 47.3974 151.176 46.1459 149.629 46.1459C147.31 46.1459 145.429 44.2679 145.429 41.9508H146.829C146.829 43.496 148.082 44.7475 149.629 44.7475C151.949 44.7475 153.829 46.6255 153.829 48.9426C153.829 50.4878 155.082 51.7393 156.629 51.7393C158.949 51.7393 160.829 53.6173 160.829 55.9344C160.829 57.4796 162.082 58.7311 163.629 58.7311V60.1295C161.309 60.1295 159.429 58.2515 159.429 55.9344C159.429 54.3892 158.176 53.1377 156.629 53.1377C154.309 53.1377 152.429 51.2597 152.429 48.9426ZM170.253 47.5792L176.193 53.5124L175.204 54.5011L169.264 48.5678L170.253 47.5792V47.5792Z" fill="#6C5CE7"/>
<path fill-rule="evenodd" clip-rule="evenodd" d="M188.787 48.9426C188.787 47.3974 187.534 46.1459 185.987 46.1459C183.667 46.1459 181.787 44.2679 181.787 41.9508H183.187C183.187 43.496 184.44 44.7475 185.987 44.7475C188.306 44.7475 190.187 46.6255 190.187 48.9426C190.187 50.4878 191.44 51.7393 192.986 51.7393C195.306 51.7393 197.186 53.6173 197.186 55.9344C197.186 57.4796 198.439 58.7311 199.986 58.7311V60.1295C197.667 60.1295 195.786 58.2515 195.786 55.9344C195.786 54.3892 194.533 53.1377 192.986 53.1377C190.667 53.1377 188.787 51.2597 188.787 48.9426ZM206.611 47.5792L212.551 53.5124L211.561 54.5011L205.621 48.5678L206.611 47.5792V47.5792Z" fill="#6C5CE7"/>
<path fill-rule="evenodd" clip-rule="evenodd" d="M6.99975 69.9179C6.99975 68.3728 5.7468 67.1212 4.19985 67.1212C1.88013 67.1212 0 65.2432 0 62.9261H1.39995C1.39995 64.4713 2.65291 65.7229 4.19985 65.7229C6.51957 65.7229 8.3997 67.6009 8.3997 69.9179C8.3997 71.4631 9.65266 72.7147 11.1996 72.7147C13.5193 72.7147 15.3995 74.5927 15.3995 76.9097C15.3995 78.4549 16.6524 79.7065 18.1994 79.7065V81.1048C15.8796 81.1048 13.9995 79.2268 13.9995 76.9097C13.9995 75.3646 12.7465 74.113 11.1996 74.113C8.87989 74.113 6.99975 72.235 6.99975 69.9179ZM24.8239 68.5545L30.7639 74.4878L29.7741 75.4764L23.8342 69.5432L24.8239 68.5545V68.5545Z" fill="#6C5CE7"/>
<path fill-rule="evenodd" clip-rule="evenodd" d="M43.3572 69.9179C43.3572 68.3728 42.1042 67.1212 40.5573 67.1212C38.2376 67.1212 36.3574 65.2432 36.3574 62.9261H37.7574C37.7574 64.4713 39.0103 65.7229 40.5573 65.7229C42.877 65.7229 44.7571 67.6009 44.7571 69.9179C44.7571 71.4631 46.0101 72.7147 47.557 72.7147C49.8767 72.7147 51.7569 74.5927 51.7569 76.9097C51.7569 78.4549 53.0098 79.7065 54.5568 79.7065V81.1048C52.2371 81.1048 50.3569 79.2268 50.3569 76.9097C50.3569 75.3646 49.104 74.113 47.557 74.113C45.2373 74.113 43.3572 72.235 43.3572 69.9179ZM61.1813 68.5545L67.1213 74.4878L66.1316 75.4764L60.1916 69.5432L61.1813 68.5545V68.5545Z" fill="#6C5CE7"/>
<path fill-rule="evenodd" clip-rule="evenodd" d="M79.7144 69.9179C79.7144 68.3728 78.4614 67.1212 76.9145 67.1212C74.5947 67.1212 72.7146 65.2432 72.7146 62.9261H74.1146C74.1146 64.4713 75.3675 65.7229 76.9145 65.7229C79.2342 65.7229 81.1143 67.6009 81.1143 69.9179C81.1143 71.4631 82.3673 72.7147 83.9142 72.7147C86.2339 72.7147 88.1141 74.5927 88.1141 76.9097C88.1141 78.4549 89.367 79.7065 90.914 79.7065V81.1048C88.5942 81.1048 86.7141 79.2268 86.7141 76.9097C86.7141 75.3646 85.4611 74.113 83.9142 74.113C81.5945 74.113 79.7144 72.235 79.7144 69.9179ZM97.5385 68.5545L103.479 74.4878L102.489 75.4764L96.5488 69.5432L97.5385 68.5545V68.5545Z" fill="#6C5CE7"/>
<path fill-rule="evenodd" clip-rule="evenodd" d="M116.072 69.9179C116.072 68.3728 114.819 67.1212 113.272 67.1212C110.952 67.1212 109.072 65.2432 109.072 62.9261H110.472C110.472 64.4713 111.725 65.7229 113.272 65.7229C115.592 65.7229 117.472 67.6009 117.472 69.9179C117.472 71.4631 118.725 72.7147 120.272 72.7147C122.591 72.7147 124.471 74.5927 124.471 76.9097C124.471 78.4549 125.724 79.7065 127.271 79.7065V81.1048C124.952 81.1048 123.072 79.2268 123.072 76.9097C123.072 75.3646 121.819 74.113 120.272 74.113C117.952 74.113 116.072 72.235 116.072 69.9179ZM133.896 68.5545L139.836 74.4878L138.846 75.4764L132.906 69.5432L133.896 68.5545V68.5545Z" fill="#6C5CE7"/>
<path fill-rule="evenodd" clip-rule="evenodd" d="M152.429 69.9179C152.429 68.3728 151.176 67.1212 149.629 67.1212C147.31 67.1212 145.429 65.2432 145.429 62.9261H146.829C146.829 64.4713 148.082 65.7229 149.629 65.7229C151.949 65.7229 153.829 67.6009 153.829 69.9179C153.829 71.4631 155.082 72.7147 156.629 72.7147C158.949 72.7147 160.829 74.5927 160.829 76.9097C160.829 78.4549 162.082 79.7065 163.629 79.7065V81.1048C161.309 81.1048 159.429 79.2268 159.429 76.9097C159.429 75.3646 158.176 74.113 156.629 74.113C154.309 74.113 152.429 72.235 152.429 69.9179ZM170.253 68.5545L176.193 74.4878L175.204 75.4764L169.264 69.5432L170.253 68.5545V68.5545Z" fill="#6C5CE7"/>
<path fill-rule="evenodd" clip-rule="evenodd" d="M188.787 69.9179C188.787 68.3728 187.534 67.1212 185.987 67.1212C183.667 67.1212 181.787 65.2432 181.787 62.9261H183.187C183.187 64.4713 184.44 65.7229 185.987 65.7229C188.306 65.7229 190.187 67.6009 190.187 69.9179C190.187 71.4631 191.44 72.7147 192.986 72.7147C195.306 72.7147 197.186 74.5927 197.186 76.9097C197.186 78.4549 198.439 79.7065 199.986 79.7065V81.1048C197.667 81.1048 195.786 79.2268 195.786 76.9097C195.786 75.3646 194.533 74.113 192.986 74.113C190.667 74.113 188.787 72.235 188.787 69.9179ZM206.611 68.5545L212.551 74.4878L211.561 75.4764L205.621 69.5432L206.611 68.5545V68.5545Z" fill="#6C5CE7"/>
<path fill-rule="evenodd" clip-rule="evenodd" d="M6.99975 90.8934C6.99975 89.3482 5.7468 88.0967 4.19985 88.0967C1.88013 88.0967 0 86.2187 0 83.9016H1.39995C1.39995 85.4468 2.65291 86.6983 4.19985 86.6983C6.51957 86.6983 8.3997 88.5763 8.3997 90.8934C8.3997 92.4386 9.65266 93.6901 11.1996 93.6901C13.5193 93.6901 15.3995 95.5681 15.3995 97.8852C15.3995 99.4304 16.6524 100.682 18.1994 100.682V102.08C15.8796 102.08 13.9995 100.202 13.9995 97.8852C13.9995 96.34 12.7465 95.0885 11.1996 95.0885C8.87989 95.0885 6.99975 93.2105 6.99975 90.8934ZM24.8239 89.53L30.7639 95.4632L29.7741 96.4519L23.8342 90.5186L24.8239 89.53V89.53Z" fill="#6C5CE7"/>
<path fill-rule="evenodd" clip-rule="evenodd" d="M43.3572 90.8934C43.3572 89.3482 42.1042 88.0967 40.5573 88.0967C38.2376 88.0967 36.3574 86.2187 36.3574 83.9016H37.7574C37.7574 85.4468 39.0103 86.6983 40.5573 86.6983C42.877 86.6983 44.7571 88.5763 44.7571 90.8934C44.7571 92.4386 46.0101 93.6901 47.557 93.6901C49.8767 93.6901 51.7569 95.5681 51.7569 97.8852C51.7569 99.4304 53.0098 100.682 54.5568 100.682V102.08C52.2371 102.08 50.3569 100.202 50.3569 97.8852C50.3569 96.34 49.104 95.0885 47.557 95.0885C45.2373 95.0885 43.3572 93.2105 43.3572 90.8934ZM61.1813 89.53L67.1213 95.4632L66.1316 96.4519L60.1916 90.5186L61.1813 89.53V89.53Z" fill="#6C5CE7"/>
<path fill-rule="evenodd" clip-rule="evenodd" d="M79.7144 90.8934C79.7144 89.3482 78.4614 88.0967 76.9145 88.0967C74.5947 88.0967 72.7146 86.2187 72.7146 83.9016H74.1146C74.1146 85.4468 75.3675 86.6983 76.9145 86.6983C79.2342 86.6983 81.1143 88.5763 81.1143 90.8934C81.1143 92.4386 82.3673 93.6901 83.9142 93.6901C86.2339 93.6901 88.1141 95.5681 88.1141 97.8852C88.1141 99.4304 89.367 100.682 90.914 100.682V102.08C88.5942 102.08 86.7141 100.202 86.7141 97.8852C86.7141 96.34 85.4611 95.0885 83.9142 95.0885C81.5945 95.0885 79.7144 93.2105 79.7144 90.8934ZM97.5385 89.53L103.479 95.4632L102.489 96.4519L96.5488 90.5186L97.5385 89.53V89.53Z" fill="#6C5CE7"/>
<path fill-rule="evenodd" clip-rule="evenodd" d="M116.072 90.8934C116.072 89.3482 114.819 88.0967 113.272 88.0967C110.952 88.0967 109.072 86.2187 109.072 83.9016H110.472C110.472 85.4468 111.725 86.6983 113.272 86.6983C115.592 86.6983 117.472 88.5763 117.472 90.8934C117.472 92.4386 118.725 93.6901 120.272 93.6901C122.591 93.6901 124.471 95.5681 124.471 97.8852C124.471 99.4304 125.724 100.682 127.271 100.682V102.08C124.952 102.08 123.072 100.202 123.072 97.8852C123.072 96.34 121.819 95.0885 120.272 95.0885C117.952 95.0885 116.072 93.2105 116.072 90.8934ZM133.896 89.53L139.836 95.4632L138.846 96.4519L132.906 90.5186L133.896 89.53V89.53Z" fill="#6C5CE7"/>
<path fill-rule="evenodd" clip-rule="evenodd" d="M152.429 90.8934C152.429 89.3482 151.176 88.0967 149.629 88.0967C147.31 88.0967 145.429 86.2187 145.429 83.9016H146.829C146.829 85.4468 148.082 86.6983 149.629 86.6983C151.949 86.6983 153.829 88.5763 153.829 90.8934C153.829 92.4386 155.082 93.6901 156.629 93.6901C158.949 93.6901 160.829 95.5681 160.829 97.8852C160.829 99.4304 162.082 100.682 163.629 100.682V102.08C161.309 102.08 159.429 100.202 159.429 97.8852C159.429 96.34 158.176 95.0885 156.629 95.0885C154.309 95.0885 152.429 93.2105 152.429 90.8934ZM170.253 89.53L176.193 95.4632L175.204 96.4519L169.264 90.5186L170.253 89.53V89.53Z" fill="#6C5CE7"/>
<path fill-rule="evenodd" clip-rule="evenodd" d="M188.787 90.8934C188.787 89.3482 187.534 88.0967 185.987 88.0967C183.667 88.0967 181.787 86.2187 181.787 83.9016H183.187C183.187 85.4468 184.44 86.6983 185.987 86.6983C188.306 86.6983 190.187 88.5763 190.187 90.8934C190.187 92.4386 191.44 93.6901 192.986 93.6901C195.306 93.6901 197.186 95.5681 197.186 97.8852C197.186 99.4304 198.439 100.682 199.986 100.682V102.08C197.667 102.08 195.786 100.202 195.786 97.8852C195.786 96.34 194.533 95.0885 192.986 95.0885C190.667 95.0885 188.787 93.2105 188.787 90.8934ZM206.611 89.53L212.551 95.4632L211.561 96.4519L205.621 90.5186L206.611 89.53V89.53Z" fill="#6C5CE7"/>
<path fill-rule="evenodd" clip-rule="evenodd" d="M6.99975 111.869C6.99975 110.324 5.7468 109.072 4.19985 109.072C1.88013 109.072 0 107.194 0 104.877H1.39995C1.39995 106.422 2.65291 107.674 4.19985 107.674C6.51957 107.674 8.3997 109.552 8.3997 111.869C8.3997 113.414 9.65266 114.665 11.1996 114.665C13.5193 114.665 15.3995 116.543 15.3995 118.861C15.3995 120.406 16.6524 121.657 18.1994 121.657V123.056C15.8796 123.056 13.9995 121.178 13.9995 118.861C13.9995 117.315 12.7465 116.064 11.1996 116.064C8.87989 116.064 6.99975 114.186 6.99975 111.869ZM24.8239 110.505L30.7639 116.439L29.7741 117.427L23.8342 111.494L24.8239 110.505V110.505Z" fill="#6C5CE7"/>
<path fill-rule="evenodd" clip-rule="evenodd" d="M43.3572 111.869C43.3572 110.324 42.1042 109.072 40.5573 109.072C38.2376 109.072 36.3574 107.194 36.3574 104.877H37.7574C37.7574 106.422 39.0103 107.674 40.5573 107.674C42.877 107.674 44.7571 109.552 44.7571 111.869C44.7571 113.414 46.0101 114.665 47.557 114.665C49.8767 114.665 51.7569 116.543 51.7569 118.861C51.7569 120.406 53.0098 121.657 54.5568 121.657V123.056C52.2371 123.056 50.3569 121.178 50.3569 118.861C50.3569 117.315 49.104 116.064 47.557 116.064C45.2373 116.064 43.3572 114.186 43.3572 111.869ZM61.1813 110.505L67.1213 116.439L66.1316 117.427L60.1916 111.494L61.1813 110.505V110.505Z" fill="#6C5CE7"/>
<path fill-rule="evenodd" clip-rule="evenodd" d="M79.7144 111.869C79.7144 110.324 78.4614 109.072 76.9145 109.072C74.5947 109.072 72.7146 107.194 72.7146 104.877H74.1146C74.1146 106.422 75.3675 107.674 76.9145 107.674C79.2342 107.674 81.1143 109.552 81.1143 111.869C81.1143 113.414 82.3673 114.665 83.9142 114.665C86.2339 114.665 88.1141 116.543 88.1141 118.861C88.1141 120.406 89.367 121.657 90.914 121.657V123.056C88.5942 123.056 86.7141 121.178 86.7141 118.861C86.7141 117.315 85.4611 116.064 83.9142 116.064C81.5945 116.064 79.7144 114.186 79.7144 111.869ZM97.5385 110.505L103.479 116.439L102.489 117.427L96.5488 111.494L97.5385 110.505V110.505Z" fill="#6C5CE7"/>
<path fill-rule="evenodd" clip-rule="evenodd" d="M116.072 111.869C116.072 110.324 114.819 109.072 113.272 109.072C110.952 109.072 109.072 107.194 109.072 104.877H110.472C110.472 106.422 111.725 107.674 113.272 107.674C115.592 107.674 117.472 109.552 117.472 111.869C117.472 113.414 118.725 114.665 120.272 114.665C122.591 114.665 124.471 116.543 124.471 118.861C124.471 120.406 125.724 121.657 127.271 121.657V123.056C124.952 123.056 123.072 121.178 123.072 118.861C123.072 117.315 121.819 116.064 120.272 116.064C117.952 116.064 116.072 114.186 116.072 111.869ZM133.896 110.505L139.836 116.439L138.846 117.427L132.906 111.494L133.896 110.505V110.505Z" fill="#6C5CE7"/>
<path fill-rule="evenodd" clip-rule="evenodd" d="M152.429 111.869C152.429 110.324 151.176 109.072 149.629 109.072C147.31 109.072 145.429 107.194 145.429 104.877H146.829C146.829 106.422 148.082 107.674 149.629 107.674C151.949 107.674 153.829 109.552 153.829 111.869C153.829 113.414 155.082 114.665 156.629 114.665C158.949 114.665 160.829 116.543 160.829 118.861C160.829 120.406 162.082 121.657 163.629 121.657V123.056C161.309 123.056 159.429 121.178 159.429 118.861C159.429 117.315 158.176 116.064 156.629 116.064C154.309 116.064 152.429 114.186 152.429 111.869ZM170.253 110.505L176.193 116.439L175.204 117.427L169.264 111.494L170.253 110.505V110.505Z" fill="#6C5CE7"/>
<path fill-rule="evenodd" clip-rule="evenodd" d="M188.787 111.869C188.787 110.324 187.534 109.072 185.987 109.072C183.667 109.072 181.787 107.194 181.787 104.877H183.187C183.187 106.422 184.44 107.674 185.987 107.674C188.306 107.674 190.187 109.552 190.187 111.869C190.187 113.414 191.44 114.665 192.986 114.665C195.306 114.665 197.186 116.543 197.186 118.861C197.186 120.406 198.439 121.657 199.986 121.657V123.056C197.667 123.056 195.786 121.178 195.786 118.861C195.786 117.315 194.533 116.064 192.986 116.064C190.667 116.064 188.787 114.186 188.787 111.869ZM206.611 110.505L212.551 116.439L211.561 117.427L205.621 111.494L206.611 110.505V110.505Z" fill="#6C5CE7"/>
<path fill-rule="evenodd" clip-rule="evenodd" d="M6.99975 132.844C6.99975 131.299 5.7468 130.047 4.19985 130.047C1.88013 130.047 0 128.169 0 125.852H1.39995C1.39995 127.397 2.65291 128.649 4.19985 128.649C6.51957 128.649 8.3997 130.527 8.3997 132.844C8.3997 134.389 9.65266 135.641 11.1996 135.641C13.5193 135.641 15.3995 137.519 15.3995 139.836C15.3995 141.381 16.6524 142.633 18.1994 142.633V144.031C15.8796 144.031 13.9995 142.153 13.9995 139.836C13.9995 138.291 12.7465 137.039 11.1996 137.039C8.87989 137.039 6.99975 135.161 6.99975 132.844ZM24.8239 131.481L30.7639 137.414L29.7741 138.403L23.8342 132.469L24.8239 131.481V131.481Z" fill="#6C5CE7"/>
<path fill-rule="evenodd" clip-rule="evenodd" d="M43.3572 132.844C43.3572 131.299 42.1042 130.047 40.5573 130.047C38.2376 130.047 36.3574 128.169 36.3574 125.852H37.7574C37.7574 127.397 39.0103 128.649 40.5573 128.649C42.877 128.649 44.7571 130.527 44.7571 132.844C44.7571 134.389 46.0101 135.641 47.557 135.641C49.8767 135.641 51.7569 137.519 51.7569 139.836C51.7569 141.381 53.0098 142.633 54.5568 142.633V144.031C52.2371 144.031 50.3569 142.153 50.3569 139.836C50.3569 138.291 49.104 137.039 47.557 137.039C45.2373 137.039 43.3572 135.161 43.3572 132.844ZM61.1813 131.481L67.1213 137.414L66.1316 138.403L60.1916 132.469L61.1813 131.481V131.481Z" fill="#6C5CE7"/>
<path fill-rule="evenodd" clip-rule="evenodd" d="M79.7144 132.844C79.7144 131.299 78.4614 130.047 76.9145 130.047C74.5947 130.047 72.7146 128.169 72.7146 125.852H74.1146C74.1146 127.397 75.3675 128.649 76.9145 128.649C79.2342 128.649 81.1143 130.527 81.1143 132.844C81.1143 134.389 82.3673 135.641 83.9142 135.641C86.2339 135.641 88.1141 137.519 88.1141 139.836C88.1141 141.381 89.367 142.633 90.914 142.633V144.031C88.5942 144.031 86.7141 142.153 86.7141 139.836C86.7141 138.291 85.4611 137.039 83.9142 137.039C81.5945 137.039 79.7144 135.161 79.7144 132.844ZM97.5385 131.481L103.479 137.414L102.489 138.403L96.5488 132.469L97.5385 131.481V131.481Z" fill="#6C5CE7"/>
<path fill-rule="evenodd" clip-rule="evenodd" d="M116.072 132.844C116.072 131.299 114.819 130.047 113.272 130.047C110.952 130.047 109.072 128.169 109.072 125.852H110.472C110.472 127.397 111.725 128.649 113.272 128.649C115.592 128.649 117.472 130.527 117.472 132.844C117.472 134.389 118.725 135.641 120.272 135.641C122.591 135.641 124.471 137.519 124.471 139.836C124.471 141.381 125.724 142.633 127.271 142.633V144.031C124.952 144.031 123.072 142.153 123.072 139.836C123.072 138.291 121.819 137.039 120.272 137.039C117.952 137.039 116.072 135.161 116.072 132.844ZM133.896 131.481L139.836 137.414L138.846 138.403L132.906 132.469L133.896 131.481V131.481Z" fill="#6C5CE7"/>
<path fill-rule="evenodd" clip-rule="evenodd" d="M152.429 132.844C152.429 131.299 151.176 130.047 149.629 130.047C147.31 130.047 145.429 128.169 145.429 125.852H146.829C146.829 127.397 148.082 128.649 149.629 128.649C151.949 128.649 153.829 130.527 153.829 132.844C153.829 134.389 155.082 135.641 156.629 135.641C158.949 135.641 160.829 137.519 160.829 139.836C160.829 141.381 162.082 142.633 163.629 142.633V144.031C161.309 144.031 159.429 142.153 159.429 139.836C159.429 138.291 158.176 137.039 156.629 137.039C154.309 137.039 152.429 135.161 152.429 132.844ZM170.253 131.481L176.193 137.414L175.204 138.403L169.264 132.469L170.253 131.481V131.481Z" fill="#6C5CE7"/>
<path fill-rule="evenodd" clip-rule="evenodd" d="M188.787 132.844C188.787 131.299 187.534 130.047 185.987 130.047C183.667 130.047 181.787 128.169 181.787 125.852H183.187C183.187 127.397 184.44 128.649 185.987 128.649C188.306 128.649 190.187 130.527 190.187 132.844C190.187 134.389 191.44 135.641 192.986 135.641C195.306 135.641 197.186 137.519 197.186 139.836C197.186 141.381 198.439 142.633 199.986 142.633V144.031C197.667 144.031 195.786 142.153 195.786 139.836C195.786 138.291 194.533 137.039 192.986 137.039C190.667 137.039 188.787 135.161 188.787 132.844ZM206.611 131.481L212.551 137.414L211.561 138.403L205.621 132.469L206.611 131.481V131.481Z" fill="#6C5CE7"/>
<rect x="31" y="-13" width="187" height="101" rx="16" fill="white"/>
</g>
<defs>
<clipPath id="clip0_1717_9372">
<rect width="200" height="126" fill="white"/>
</clipPath>
</defs>
</svg>
