<svg width="209" height="285" fill="none" xmlns="http://www.w3.org/2000/svg">
  <g clip-path="url(#a)" fill="#FDCB6E">
    <path d="M162.704 35.661a6.687 6.687 0 1 0 0-13.374 6.687 6.687 0 0 0 0 13.374ZM184.992 13.373a6.687 6.687 0 1 0 0-13.374 6.687 6.687 0 0 0 0 13.374ZM207.281 35.661a6.687 6.687 0 1 0-.001-13.373 6.687 6.687 0 0 0 .001 13.373ZM118.128 80.238a6.687 6.687 0 1 0-.001-13.374 6.687 6.687 0 0 0 .001 13.374ZM140.416 57.95a6.686 6.686 0 0 0 6.686-6.687 6.687 6.687 0 1 0-6.686 6.686ZM162.704 80.238a6.687 6.687 0 1 0 0-13.374 6.687 6.687 0 0 0 0 13.374ZM184.992 57.95a6.687 6.687 0 1 0 0-13.374 6.687 6.687 0 0 0 0 13.373ZM207.281 80.238a6.687 6.687 0 1 0-.001-13.374 6.687 6.687 0 0 0 .001 13.374ZM73.551 124.814a6.687 6.687 0 1 0 0-13.373 6.687 6.687 0 0 0 0 13.373ZM95.84 102.526a6.687 6.687 0 1 0 0-13.373 6.687 6.687 0 0 0 0 13.373ZM118.128 124.814a6.687 6.687 0 1 0-.001-13.373 6.687 6.687 0 0 0 .001 13.373ZM140.416 102.526a6.686 6.686 0 0 0 6.686-6.687 6.686 6.686 0 1 0-13.373 0 6.687 6.687 0 0 0 6.687 6.687ZM162.704 124.814a6.687 6.687 0 1 0 0-13.374 6.687 6.687 0 0 0 0 13.374ZM184.992 102.526a6.687 6.687 0 1 0 0-13.374 6.687 6.687 0 0 0 0 13.374ZM207.281 124.814a6.687 6.687 0 1 0-.001-13.373 6.687 6.687 0 0 0 .001 13.373ZM95.84 147.102a6.686 6.686 0 1 0 0-13.373 6.687 6.687 0 0 0 0 13.373ZM118.128 169.391a6.687 6.687 0 1 0-.002-13.374 6.687 6.687 0 0 0 .002 13.374ZM140.416 147.102a6.686 6.686 0 1 0 0-13.373 6.686 6.686 0 0 0 0 13.373ZM162.704 169.391a6.687 6.687 0 1 0 0-13.374 6.687 6.687 0 0 0 0 13.374ZM184.992 147.102a6.686 6.686 0 1 0 .001-13.373 6.686 6.686 0 0 0-.001 13.373ZM207.281 169.391a6.687 6.687 0 1 0-.002-13.374 6.687 6.687 0 0 0 .002 13.374ZM140.416 191.679a6.686 6.686 0 1 0 0-13.373 6.686 6.686 0 0 0 0 13.373ZM162.704 213.967a6.687 6.687 0 1 0 0-13.374 6.687 6.687 0 0 0 0 13.374ZM184.992 191.679a6.687 6.687 0 1 0 0-13.374 6.687 6.687 0 0 0 0 13.374ZM207.281 213.967a6.687 6.687 0 1 0-.001-13.373 6.687 6.687 0 0 0 .001 13.373ZM184.992 236.255a6.686 6.686 0 1 0 .001-13.373 6.686 6.686 0 0 0-.001 13.373ZM207.281 258.543a6.686 6.686 0 1 0 0-13.372 6.686 6.686 0 0 0 0 13.372Z"/>
  </g>
  <defs>
    <clipPath id="a">
      <path fill="#fff" d="M0 0h209v285H0z"/>
    </clipPath>
  </defs>
</svg>
