<svg width="197" height="144" viewBox="0 0 197 144" fill="none" xmlns="http://www.w3.org/2000/svg">
<g clip-path="url(#clip0_2361_11479)">
<rect opacity="0.24" width="631.694" height="352.523" rx="45.4479" transform="matrix(0.707107 0.707107 0.707107 -0.707107 -317.684 232.83)" fill="#6C5CE7"/>
<g style="mix-blend-mode:multiply" opacity="0.24">
<rect width="631.694" height="207.751" rx="45.4479" transform="matrix(0.707107 0.707107 0.707107 -0.707107 -61.9153 180.496)" fill="#FDCB6E"/>
</g>
</g>
<g clip-path="url(#clip1_2361_11479)">
<path d="M145.157 135.594C145.157 136.924 146.236 138.002 147.565 138.002C148.895 138.002 149.973 136.924 149.973 135.594C149.973 134.264 148.895 133.186 147.565 133.186C146.236 133.186 145.157 134.264 145.157 135.594Z" fill="#A29BFE"/>
<path d="M153.184 143.62C153.184 144.95 154.262 146.028 155.592 146.028C156.922 146.028 158 144.95 158 143.62C158 142.29 156.922 141.212 155.592 141.212C154.262 141.212 153.184 142.29 153.184 143.62Z" fill="#A29BFE"/>
<path d="M129.104 119.541C129.104 120.871 130.182 121.949 131.512 121.949C132.842 121.949 133.92 120.871 133.92 119.541C133.92 118.211 132.842 117.133 131.512 117.133C130.182 117.133 129.104 118.211 129.104 119.541Z" fill="#A29BFE"/>
<path d="M137.131 127.567C137.131 128.897 138.209 129.975 139.539 129.975C140.869 129.975 141.947 128.897 141.947 127.567C141.947 126.238 140.869 125.159 139.539 125.159C138.209 125.159 137.131 126.238 137.131 127.567Z" fill="#A29BFE"/>
<path d="M129.104 135.594C129.104 136.924 130.182 138.002 131.512 138.002C132.842 138.002 133.92 136.924 133.92 135.594C133.92 134.264 132.842 133.186 131.512 133.186C130.182 133.186 129.104 134.264 129.104 135.594Z" fill="#A29BFE"/>
<path d="M137.131 143.62C137.131 144.95 138.209 146.028 139.539 146.028C140.869 146.028 141.947 144.95 141.947 143.62C141.947 142.29 140.869 141.212 139.539 141.212C138.209 141.212 137.131 142.29 137.131 143.62Z" fill="#A29BFE"/>
<path d="M113.051 103.488C113.051 104.817 114.129 105.896 115.459 105.896C116.789 105.896 117.867 104.817 117.867 103.488C117.867 102.158 116.789 101.08 115.459 101.08C114.129 101.08 113.051 102.158 113.051 103.488Z" fill="#A29BFE"/>
<path d="M121.078 111.514C121.078 112.844 122.156 113.922 123.486 113.922C124.816 113.922 125.894 112.844 125.894 111.514C125.894 110.184 124.816 109.106 123.486 109.106C122.156 109.106 121.078 110.184 121.078 111.514Z" fill="#A29BFE"/>
<path d="M113.051 119.541C113.051 120.871 114.129 121.949 115.459 121.949C116.789 121.949 117.867 120.871 117.867 119.541C117.867 118.211 116.789 117.133 115.459 117.133C114.129 117.133 113.051 118.211 113.051 119.541Z" fill="#A29BFE"/>
<path d="M121.078 127.567C121.078 128.897 122.156 129.975 123.486 129.975C124.816 129.975 125.894 128.897 125.894 127.567C125.894 126.238 124.816 125.159 123.486 125.159C122.156 125.159 121.078 126.238 121.078 127.567Z" fill="#A29BFE"/>
<path d="M113.051 135.594C113.051 136.924 114.129 138.002 115.459 138.002C116.789 138.002 117.867 136.924 117.867 135.594C117.867 134.264 116.789 133.186 115.459 133.186C114.129 133.186 113.051 134.264 113.051 135.594Z" fill="#A29BFE"/>
<path d="M121.078 143.62C121.078 144.95 122.156 146.028 123.486 146.028C124.816 146.028 125.894 144.95 125.894 143.62C125.894 142.29 124.816 141.212 123.486 141.212C122.156 141.212 121.078 142.29 121.078 143.62Z" fill="#A29BFE"/>
<path d="M105.025 111.514C105.025 112.844 106.103 113.922 107.433 113.922C108.763 113.922 109.841 112.844 109.841 111.514C109.841 110.184 108.763 109.106 107.433 109.106C106.103 109.106 105.025 110.184 105.025 111.514Z" fill="#A29BFE"/>
<path d="M96.9982 119.541C96.9982 120.871 98.0762 121.949 99.4061 121.949C100.736 121.949 101.814 120.871 101.814 119.541C101.814 118.211 100.736 117.133 99.4061 117.133C98.0762 117.133 96.9982 118.211 96.9982 119.541Z" fill="#A29BFE"/>
<path d="M105.025 127.567C105.025 128.897 106.103 129.975 107.433 129.975C108.763 129.975 109.841 128.897 109.841 127.567C109.841 126.238 108.763 125.159 107.433 125.159C106.103 125.159 105.025 126.238 105.025 127.567Z" fill="#A29BFE"/>
<path d="M96.9982 135.594C96.9982 136.924 98.0762 138.002 99.4061 138.002C100.736 138.002 101.814 136.924 101.814 135.594C101.814 134.264 100.736 133.186 99.4061 133.186C98.0762 133.186 96.9982 134.264 96.9982 135.594Z" fill="#A29BFE"/>
<path d="M105.025 143.62C105.025 144.95 106.103 146.028 107.433 146.028C108.763 146.028 109.841 144.95 109.841 143.62C109.841 142.29 108.763 141.212 107.433 141.212C106.103 141.212 105.025 142.29 105.025 143.62Z" fill="#A29BFE"/>
<path d="M88.9717 127.567C88.9717 128.897 90.0497 129.975 91.3796 129.975C92.7095 129.975 93.7876 128.897 93.7876 127.567C93.7876 126.238 92.7095 125.159 91.3796 125.159C90.0497 125.159 88.9717 126.238 88.9717 127.567Z" fill="#A29BFE"/>
<path d="M80.9451 135.594C80.9451 136.924 82.0231 138.002 83.353 138.002C84.6829 138.002 85.761 136.924 85.761 135.594C85.761 134.264 84.6829 133.186 83.353 133.186C82.0231 133.186 80.9451 134.264 80.9451 135.594Z" fill="#A29BFE"/>
<path d="M88.9717 143.62C88.9717 144.95 90.0497 146.028 91.3796 146.028C92.7095 146.028 93.7876 144.95 93.7876 143.62C93.7876 142.29 92.7095 141.212 91.3796 141.212C90.0497 141.212 88.9717 142.29 88.9717 143.62Z" fill="#A29BFE"/>
<path d="M72.9184 143.62C72.9184 144.95 73.9965 146.028 75.3264 146.028C76.6563 146.028 77.7344 144.95 77.7344 143.62C77.7344 142.29 76.6563 141.212 75.3264 141.212C73.9965 141.212 72.9184 142.29 72.9184 143.62Z" fill="#A29BFE"/>
</g>
<defs>
<clipPath id="clip0_2361_11479">
<rect width="555.87" height="154.036" fill="white" transform="matrix(1 0 0 -1 -359 155)"/>
</clipPath>
<clipPath id="clip1_2361_11479">
<rect width="75.2662" height="102.636" fill="white" transform="translate(158 77) rotate(90)"/>
</clipPath>
</defs>
</svg>
